<svg width="552" height="100" viewBox="0 0 552 100" fill="none" xmlns="http://www.w3.org/2000/svg">
<path d="M69.4 9.24999C67.85 10.45 66 12.25 65.35 13.25L64.15 15L62.85 14C58.8 10.8 51.2 9.04999 45.8 10.05C41.45 10.8 40.9 11.3 43.9 11.7C46.2 12 51 14.7 50.35 15.3C50.2 15.45 48.2 15.3 45.85 15C38.2 13.95 30.35 16.15 25.2 20.65C23.95 21.75 23.05 22.7 23.15 22.8C23.2 22.9 24.4 22.65 25.75 22.25C29.35 21.15 33.15 21.3 35.65 22.6L37.75 23.75L32.25 24.05C26.4 24.4 24.25 25 19.35 27.6C16.65 29.05 10.1 34.75 10.6 35.25C10.7 35.35 11.9 34.95 13.25 34.3C16.55 32.7 20.25 32 24.65 32.05H28.25L23.75 33.3C14.3 35.9 6.25001 41.05 3.35001 46.4C1.70001 49.4 0.900014 53.4 1.35001 56.15L1.65001 58.2L2.55001 55.6C4.65001 49.4 10.1 44.6 19.15 41.05C24 39.1 25 39.1 21.75 41C12.6 46.35 5.05001 55.15 2.75001 63.15C1.65001 67.05 1.90001 73.4 3.30001 76.5L4.35001 78.75V75.65C4.40001 72.15 5.60001 68 6.95002 66.8C7.85002 66 7.85002 66.05 7.60002 68.25C7.10002 73.1 10.2 80.2 14.85 84.65L16.85 86.55L15.2 83.15C12.85 78.4 12 74.6 12 69C12 63.75 13.15 58.6 15.25 54.6C16.65 51.9 18.8 48.75 18.2 50.25C15.2 58.1 14.35 63.3 15.1 69.4C16.3 79.35 22.8 88.3 30.45 90.5C31.9 90.9 31.8 90.75 29.3 88.45C25.8 85.25 23.75 82.1 22.5 78.1C21.05 73.4 21.25 73.05 23.5 76.4C25.25 79.05 27.15 80.85 29.45 82.25C29.85 82.5 29.6 81.9 28.85 80.95C27 78.55 25.5 75.05 25.5 73.15C25.5 72.1 25 70.95 24 69.8C22.2 67.8 20.65 64.45 20.2 61.7C19.6 57.8 21.95 50.6 25.05 47C26.2 45.6 26.2 45.65 23.95 51.25C22.5 54.7 22.3 55.85 22.3 59.75C22.25 63.55 22.45 64.65 23.55 67C25.3 70.7 27.6 73.3 30.65 74.85L33.2 76.1L31.05 73.7C28.35 70.6 27.05 68.05 26.5 64.8C26 61.85 26.6 60.75 27.5 62.95C27.85 63.8 28.4 64.7 28.8 65C29.35 65.5 29.4 65 29.15 62.15C28.85 58.6 29.75 54.25 31.1 52.35C31.65 51.6 31.7 52.1 31.6 55.5C31.4 60.2 32.1 62.8 34.6 66.35L36.25 68.75L36.65 64C37.6 52.4 42.4 42.85 50.3 37.1C52.85 35.2 53.85 34.1 55 31.75C56.7 28.25 57.7 27 60.25 25.3L62.1 24L63.65 25.3C64.9 26.35 65.55 26.5 67.9 26.4L70.65 26.25L72.7 29.15C73.8 30.75 75.75 32.8 77 33.7C80.3 36.15 80.9 37 82.55 41.55C83.35 43.85 85.85 49.45 88.05 54C92.25 62.5 94 66.9 94 68.7C94 69.7 93.95 69.7 93.2 68.6C92.05 66.95 89.5 67.25 88.6 69.15C88.05 70.35 88 71.15 88.55 73.7C89.25 77.4 88.95 78.65 87.4 78.4C86.55 78.3 85.75 77.25 84.25 74.35C82.5 71 81.7 70.05 78.2 67.3C74.25 64.2 72.7 62.05 73.1 60.15C73.2 59.6 73.8 59.2 74.7 59.1C76.95 58.85 78.35 59.4 80.6 61.4L82.65 63.25L81.75 61.5C81.3 60.55 79.9 58.45 78.7 56.9C77.45 55.3 75.95 53.1 75.3 52L74.15 49.95L73.9 52.2C73.55 54.95 72.1 57.85 70.4 59.15C69 60.2 65.3 60.8 63.3 60.3C62.65 60.15 61.35 59.25 60.45 58.4C55.9 53.8 55.6 45.2 59.8 38.85C60.8 37.3 60.9 37.05 60.15 37.4C57.45 38.9 54.9 43.15 54.05 47.55C53.8 49.15 52.45 52.4 51.05 55.05C49.7 57.65 47.95 61.75 47.25 64.25C44.9 72.15 45 82.9 47.45 90.15L48.35 92.75L48.6 84.75C48.95 75.45 50.25 69.6 53.55 62.5L55.55 58.25L56.9 59.8C58.95 62.15 61.1 63.4 64.05 64.05C66.05 64.45 67.6 65.3 70 67.2C71.8 68.65 74.45 70.65 75.9 71.7C78.95 73.9 79.5 74.75 79.5 77.35C79.5 79.9 80.6 81.35 83 82.05C84.7 82.55 85.45 82.5 87.9 81.75C92.7 80.25 92.9 80.1 94.2 77.65C94.85 76.35 95.9 74.8 96.5 74.25C97.15 73.7 97.95 72.5 98.35 71.6C99.15 69.7 99.55 70.8 92.8 56.35C88.05 46.25 87.9 45.9 87.85 42.1L87.75 38.25L85.8 37L83.85 35.75L87.05 35.45C90.55 35.15 93.5 34.05 90.9 34C89 34 89.15 33.35 91.2 32.6C92.1 32.25 93.3 31.5 93.8 30.95L94.75 29.9L92.7 30.2C89.7 30.7 87.8 29.7 83.65 25.35C80.05 21.65 79.55 20.75 80.45 19.1C80.9 18.3 82.55 9.39999 82.35 9.14999C81.9 8.74999 76.8 13.45 75.75 15.2C74.3 17.7 73.15 18.4 72.6 17.1C72.15 15.95 72.15 10.1 72.65 8.34999C72.85 7.59999 72.85 6.99999 72.65 6.99999C72.4 6.99999 70.95 7.99999 69.4 9.24999ZM68 14.2C67.75 14.95 67.5 17.3 67.5 19.45C67.5 22.4 67.3 23.55 66.7 24C64.6 25.8 63.5 20.4 65.25 16.95C67.2 13.15 69.15 11.2 68 14.2ZM84.05 78.8C84.4 79.2 84.5 79.65 84.35 79.8C83.85 80.3 82.6 77.8 82.3 75.75L82 73.75L82.75 75.95C83.15 77.15 83.75 78.45 84.05 78.8Z" fill="white"/>
<path d="M70.8999 38.3499C69.1499 38.5999 69.1499 38.8999 70.9999 41.3999C72.6999 43.7499 73.4999 44.2499 76.2499 44.6499C77.3499 44.7999 78.6499 45.0499 79.1499 45.2499C79.8999 45.5499 79.9999 45.2999 79.9999 43.2499C79.9999 41.3499 79.7499 40.6499 78.5499 39.4499C77.2999 38.1999 76.6999 37.9999 74.6499 38.0499C73.3499 38.0999 71.6499 38.2499 70.8999 38.3499ZM74.2999 40.2499C75.1999 40.9999 75.1999 40.9999 73.7999 40.8999C72.9999 40.7999 72.2499 40.4499 72.0999 40.0999C71.8499 39.2499 73.0999 39.3499 74.2999 40.2499Z" fill="white"/>
<path d="M122.875 48C125.771 47.2708 127.844 46.3854 129.094 45.3438C130.344 44.3021 131.521 42.7708 132.625 40.75C134.854 36.5833 136.417 33.9271 137.312 32.7812C138.229 31.6146 139.24 30.6354 140.344 29.8438C141.469 29.0312 142.604 28.625 143.75 28.625C144.938 28.625 145.917 28.9792 146.688 29.6875C147.458 30.3958 147.844 31.1875 147.844 32.0625C147.844 32.7708 147.594 33.4792 147.094 34.1875C146.615 34.8958 145.917 35.25 145 35.25C143.562 35.25 142.5 34.4583 141.812 32.875C141.458 32.1042 141.104 31.7188 140.75 31.7188C140.417 31.7188 139.875 32 139.125 32.5625C138.396 33.125 136.917 35.4167 134.688 39.4375C133.521 41.5833 132.469 43.2917 131.531 44.5625C130.615 45.8333 129.135 46.8646 127.094 47.6562C128.969 47.6771 130.427 47.9375 131.469 48.4375C132.51 48.9167 133.646 49.7917 134.875 51.0625C136.125 52.3125 138.844 55.9792 143.031 62.0625C144.385 64.0208 145.521 65.4375 146.438 66.3125C147.354 67.1875 148.573 67.7188 150.094 67.9062C151.094 68.0521 151.677 68.1667 151.844 68.25C152.031 68.3333 152.125 68.4792 152.125 68.6875L152.094 69.0938C152.073 69.2812 151.969 69.375 151.781 69.375C150.698 69.375 149.333 69.3021 147.688 69.1562C146.667 69.0729 145.823 69.0312 145.156 69.0312C144.344 69.0312 143.25 69.1458 141.875 69.375C139.938 66.2083 137.542 62.6146 134.688 58.5938C131.854 54.5521 129.74 52.0729 128.344 51.1562C126.948 50.2188 125.115 49.7188 122.844 49.6562L122.812 54.3125C122.812 55.5625 122.854 57.0208 122.938 58.6875C123.021 60.5833 123.062 62.8438 123.062 65.4688C123.062 66.3646 123.375 66.9896 124 67.3438C124.646 67.6771 125.667 67.9062 127.062 68.0312C127.479 68.0729 127.844 68.1458 128.156 68.25C128.281 68.5208 128.344 68.75 128.344 68.9375C128.344 69.1667 128.219 69.3646 127.969 69.5312L126.969 69.5625C126.552 69.5625 125.552 69.4896 123.969 69.3438C122.385 69.1979 121.208 69.125 120.438 69.125C119.792 69.125 118.958 69.1875 117.938 69.3125C116.667 69.4583 114.948 69.5312 112.781 69.5312H111.875L111.812 68.5938C111.896 68.4062 112.052 68.2917 112.281 68.25C114.385 68.0625 116.042 67.6875 117.25 67.125C117.667 66.7917 117.875 66.1458 117.875 65.1875L117.844 62.1875V56.375L117.906 53.8438L117.719 45.1562L117.781 39.5L117.719 34.9688C117.698 33.0521 117.521 31.875 117.188 31.4375C116.854 31.1875 116.271 31.0312 115.438 30.9688L114.938 30.875C114.521 30.8125 113.802 30.75 112.781 30.6875C112.49 30.4792 112.344 30.2292 112.344 29.9375C112.344 29.8333 112.385 29.6771 112.469 29.4688L114.094 29.375C119.844 29.375 123.802 29.2708 125.969 29.0625C126.552 29.125 127.365 29.1562 128.406 29.1562C128.635 29.2812 128.75 29.4271 128.75 29.5938C128.75 29.7188 128.729 29.8542 128.688 30C128.583 30.1042 128.115 30.2083 127.281 30.3125C125.531 30.5 124.365 30.8438 123.781 31.3438C123.219 31.8438 122.938 32.6875 122.938 33.875L122.969 34.4688L122.906 46.2188L122.875 48ZM155.188 49.0312C155.188 46.9062 155.438 45.0208 155.938 43.375C156.458 41.7083 157.323 39.9062 158.531 37.9688C159.74 36.0312 161.198 34.4167 162.906 33.125C164.615 31.8125 166.979 30.6562 170 29.6562C172.125 28.9688 174.812 28.625 178.062 28.625C180.25 28.625 182.385 28.9167 184.469 29.5C186.573 30.0833 188.479 30.8958 190.188 31.9375C191.896 32.9792 193.604 34.5833 195.312 36.75C196.5 38.25 197.396 39.8646 198 41.5938C198.792 43.8646 199.188 46.2083 199.188 48.625C199.188 51.375 198.917 53.6562 198.375 55.4688C197.854 57.2812 196.969 59.0729 195.719 60.8438C194.74 62.2188 193.062 63.8021 190.688 65.5938C189.104 66.8021 187.135 67.7812 184.781 68.5312C182.427 69.2604 179.885 69.625 177.156 69.625C174.385 69.625 171.917 69.3021 169.75 68.6562C167.583 68.0104 165.771 67.2292 164.312 66.3125C162.875 65.375 161.385 64 159.844 62.1875C158.323 60.375 157.167 58.375 156.375 56.1875C155.583 54 155.188 51.6146 155.188 49.0312ZM176.875 68.4688C178.625 68.4688 180.438 68.2292 182.312 67.75C184.208 67.25 185.885 66.4375 187.344 65.3125C188.802 64.1667 189.938 62.875 190.75 61.4375C191.583 59.9792 192.25 58.1146 192.75 55.8438C193.25 53.5729 193.5 51.3021 193.5 49.0312C193.5 46.1979 193.083 43.3958 192.25 40.625C191.604 38.5208 190.552 36.6458 189.094 35C187.635 33.3333 185.875 32.0521 183.812 31.1562C181.75 30.2396 179.552 29.7812 177.219 29.7812C175.323 29.7812 173.469 30.0938 171.656 30.7188C169.844 31.3438 168.354 32.1458 167.188 33.125C166.021 34.0833 164.938 35.4583 163.938 37.25C162.938 39.0208 162.177 40.9792 161.656 43.125C161.135 45.2708 160.875 47.1667 160.875 48.8125C160.875 50.5417 161.135 52.5 161.656 54.6875C162.177 56.875 162.885 58.7708 163.781 60.375C164.698 61.9792 165.812 63.4062 167.125 64.6562C168.458 65.8854 169.948 66.8333 171.594 67.5C173.24 68.1458 175 68.4688 176.875 68.4688ZM203.469 69.4688L203.5 68.7812C204.208 68.3854 205.031 68.1354 205.969 68.0312C207.448 67.8438 208.385 67.6562 208.781 67.4688C209.177 67.2604 209.458 66.9792 209.625 66.625C209.917 65.9375 210.062 65.2396 210.062 64.5312L210 62.1562L210.031 59.9688L209.969 57.4062C209.969 56.3438 210 55.0208 210.062 53.4375C210.125 51.8333 210.156 50.9792 210.156 50.875V42.3438C210.156 40.9896 210.188 39.5312 210.25 37.9688C210.312 36.3854 210.344 35.2917 210.344 34.6875C210.344 32.8958 210.302 31.8542 210.219 31.5625C210.135 31.2708 209.979 31.0625 209.75 30.9375C209.521 30.8125 208.771 30.6979 207.5 30.5938C206.521 30.5104 205.844 30.4375 205.469 30.375C205.365 30.1458 205.312 29.9583 205.312 29.8125C205.312 29.6458 205.323 29.4479 205.344 29.2188C205.844 29.1771 206.229 29.1562 206.5 29.1562L209.438 29.1875C211.521 29.1875 213.729 29.1042 216.062 28.9375C217.208 28.8542 218.938 28.7812 221.25 28.7188C221.292 28.9062 221.312 29.0833 221.312 29.25C221.312 29.4583 221.26 29.625 221.156 29.75C221.073 29.8542 220.917 29.9271 220.688 29.9688C217.958 30.1979 216.344 30.5417 215.844 31C215.365 31.4375 215.125 32.5729 215.125 34.4062C215.125 37.7812 215.177 41.2604 215.281 44.8438L215.406 47.7812C215.51 47.8646 216.865 47.9688 219.469 48.0938C220.177 48.1354 220.594 48.1562 220.719 48.1562L225.312 48.0938L228.344 48.1875L236.281 47.9375C237.26 47.9167 237.854 47.875 238.062 47.8125C238.188 44.1875 238.25 40.6771 238.25 37.2812C238.25 34.0104 238.177 32.0833 238.031 31.5C237.948 31.1458 237.802 30.9062 237.594 30.7812C237.469 30.7188 236.385 30.5521 234.344 30.2812C233.99 30.2396 233.656 30.1875 233.344 30.125C233.24 29.8125 233.188 29.4583 233.188 29.0625C233.896 28.9583 234.344 28.9062 234.531 28.9062L236.594 29.0312C238.49 29.1354 240.396 29.1875 242.312 29.1875C243.542 29.1875 245.583 29.0833 248.438 28.875C248.417 29.2917 248.365 29.6667 248.281 30C247.49 30.3125 246.542 30.5104 245.438 30.5938C244.729 30.6354 244.135 30.75 243.656 30.9375C243.26 31.2292 243.062 31.8229 243.062 32.7188C243.062 32.9271 243.073 33.1562 243.094 33.4062C243.115 34.1562 243.125 34.6458 243.125 34.875V38.4688L243.156 40.7188L243.094 43.625L243.125 49.0625L243.062 54.1875C243.062 55.2083 243.094 56.8021 243.156 58.9688L243.125 63.1875C243.125 64.6042 243.25 65.6146 243.5 66.2188C243.625 66.5104 243.833 66.7188 244.125 66.8438L246.656 67.4062C247.906 67.7188 248.646 67.9792 248.875 68.1875C249.125 68.375 249.25 68.6042 249.25 68.875L249.156 69.25L249 69.2812C248.896 69.2812 248.76 69.2604 248.594 69.2188C246.323 68.8021 243.938 68.5938 241.438 68.5938C239.479 68.5938 238.083 68.625 237.25 68.6875C236.438 68.75 234.729 68.9792 232.125 69.375C232.083 69.1042 232.062 68.9062 232.062 68.7812C232.062 68.6354 232.083 68.4375 232.125 68.1875C232.771 67.8125 233.792 67.5521 235.188 67.4062C236.229 67.3021 237.052 66.9688 237.656 66.4062C238.052 66.0312 238.25 65.4792 238.25 64.75L238.219 60.25C238.281 58.8958 238.312 58.1562 238.312 58.0312C238.312 56.2604 238.281 53.6771 238.219 50.2812C238.156 49.9896 238.042 49.8125 237.875 49.75C237.312 49.5625 234.542 49.6042 229.562 49.875C228.562 49.9375 227.812 49.9688 227.312 49.9688C226.812 49.9688 225.76 49.9479 224.156 49.9062C222.573 49.8438 221.104 49.8125 219.75 49.8125C219.021 49.8125 218.406 49.8229 217.906 49.8438C216.948 49.8646 216.417 49.875 216.312 49.875C215.833 49.875 215.5 49.9688 215.312 50.1562C215.146 50.3438 215.062 50.6875 215.062 51.1875L215.094 53.375C215.094 53.7292 215.042 55.6979 214.938 59.2812C214.917 60.0104 214.906 60.6146 214.906 61.0938C214.906 63.9479 215.01 65.8438 215.219 66.7812C215.323 67.2188 215.51 67.5208 215.781 67.6875C215.969 67.8125 216.781 68.0312 218.219 68.3438C219.177 68.5521 219.906 68.75 220.406 68.9375L220.594 69.25C220.594 69.3542 220.552 69.4375 220.469 69.5C220.344 69.6042 220.167 69.6562 219.938 69.6562C219.771 69.6562 219.573 69.6458 219.344 69.625C219.115 69.625 218.667 69.6146 218 69.5938C216.938 69.5729 215.615 69.5 214.031 69.375C213.01 69.2917 212.104 69.25 211.312 69.25C209.979 69.25 207.844 69.3125 204.906 69.4375C204.344 69.4583 203.865 69.4688 203.469 69.4688ZM286.875 33.4688C286.812 32.0104 286.688 31.1875 286.5 31C286.333 30.7917 285.51 30.6042 284.031 30.4375L283.031 30.2812C282.635 30.2396 282.302 30.1875 282.031 30.125C281.927 29.8333 281.875 29.4792 281.875 29.0625C282.583 28.9583 283.042 28.9062 283.25 28.9062L287.344 29.125C287.844 29.1667 289.208 29.1875 291.438 29.1875C292.354 29.1875 294.25 29.0833 297.125 28.875C297.104 29.3125 297.052 29.6875 296.969 30C296.406 30.2708 295.458 30.4688 294.125 30.5938C293.062 30.6979 292.406 30.875 292.156 31.125C291.906 31.375 291.781 32.1354 291.781 33.4062L291.812 34.875L291.844 40.7188L291.781 43.625L291.812 49.0625L291.75 54.375L291.844 58.9688C291.844 63.6354 291.969 66.125 292.219 66.4375C292.469 66.75 293.323 67.0312 294.781 67.2812C296.281 67.6354 297.188 67.8958 297.5 68.0625C297.812 68.2292 297.969 68.5 297.969 68.875C297.969 68.9583 297.927 69.0833 297.844 69.25C297.76 69.2708 297.708 69.2812 297.688 69.2812C297.583 69.2812 297.448 69.2604 297.281 69.2188C295.01 68.8021 292.656 68.5938 290.219 68.5938C287.427 68.5938 284.292 68.8542 280.812 69.375C280.771 69.1042 280.75 68.8958 280.75 68.75C280.75 68.625 280.771 68.4375 280.812 68.1875C281.354 67.8333 282.375 67.5729 283.875 67.4062C285.917 67.1979 286.938 66.3125 286.938 64.75V60.2812L286.969 59.125L287.031 57.7812L286.938 35.7812L275 49.1875C274 50.3958 272.729 51.8438 271.188 53.5312C269.625 55.2604 268 57.2188 266.312 59.4062L263.719 62.6875C263.719 64.1458 263.802 65.1667 263.969 65.75C264.135 66.3125 264.333 66.6562 264.562 66.7812C264.812 66.9062 265.51 67.0729 266.656 67.2812C268.177 67.6354 269.083 67.8958 269.375 68.0625C269.688 68.2292 269.844 68.5 269.844 68.875C269.844 68.9583 269.812 69.0833 269.75 69.25C269.667 69.2708 269.604 69.2812 269.562 69.2812C269.479 69.2812 269.354 69.2604 269.188 69.2188C266.917 68.8021 264.552 68.5938 262.094 68.5938C259.302 68.5938 256.167 68.8542 252.688 69.375C252.667 69.1042 252.656 68.8958 252.656 68.75C252.656 68.625 252.667 68.4375 252.688 68.1875C253.25 67.8333 254.271 67.5729 255.75 67.4062C257.812 67.1979 258.844 66.3125 258.844 64.75L258.812 60.2812L258.875 59.125L258.906 57.7812L258.844 54.5938L258.812 50.875V40.1875C258.812 36.7708 258.802 34.5 258.781 33.375C258.76 32.25 258.688 31.5625 258.562 31.3125C258.458 31.0625 258.333 30.8958 258.188 30.8125C258.062 30.7292 257.312 30.6042 255.938 30.4375L254.938 30.2812C254.542 30.2396 254.208 30.1875 253.938 30.125C253.833 29.8333 253.781 29.4792 253.781 29.0625C254.469 28.9583 254.917 28.9062 255.125 28.9062L259.219 29.125C259.719 29.1667 261.083 29.1875 263.312 29.1875C264.229 29.1875 266.125 29.0833 269 28.875C269 29.3125 268.958 29.6875 268.875 30C268.292 30.2708 267.344 30.4688 266.031 30.5938C264.906 30.6979 264.24 30.8854 264.031 31.1562C263.823 31.4062 263.708 32.1562 263.688 33.4062L263.719 34.875L263.75 40.7188L263.688 43.625V49.0625L263.656 54.375L263.719 60.2812L269.5 53.3438L273.875 48.4062L279.656 41.9062C282.26 38.9896 284.667 36.1771 286.875 33.4688ZM313.562 46.75C311.604 44.25 310.344 42.4062 309.781 41.2188C309.24 40.0312 308.969 38.9062 308.969 37.8438C308.969 36.0104 309.729 34.4062 311.25 33.0312C312.771 31.6562 314.938 30.9688 317.75 30.9688C320.354 30.9688 322.365 31.6354 323.781 32.9688C325.219 34.3021 325.938 35.9583 325.938 37.9375C325.938 39.8125 325.458 41.375 324.5 42.625C323.542 43.875 321.958 44.9896 319.75 45.9688C320.479 46.9896 321.646 48.4062 323.25 50.2188C323.792 50.8229 324.198 51.3021 324.469 51.6562L329.812 58.3125C331.583 56.3125 332.885 54.5 333.719 52.875C334.573 51.2292 335 49.9688 335 49.0938C335 48.4896 334.802 47.9688 334.406 47.5312C334.031 47.0938 333.375 46.75 332.438 46.5C332.354 46.2917 332.312 46.1354 332.312 46.0312L332.375 45.75L335.969 45.4062C336.698 45.3021 337.729 45.2292 339.062 45.1875C340.396 45.1458 342.25 45.0312 344.625 44.8438L344.688 45.2188C344.688 45.3438 344.646 45.5208 344.562 45.75C343.104 46.375 341.854 47.0938 340.812 47.9062C339.792 48.6979 338.229 50.3229 336.125 52.7812C334.042 55.2188 332.25 57.4688 330.75 59.5312C333.396 62.6979 335.25 64.6458 336.312 65.375C337.396 66.0833 338.552 66.4375 339.781 66.4375C341.135 66.4375 342.312 66.0312 343.312 65.2188C343.979 64.6979 344.458 64.4375 344.75 64.4375C344.854 64.4375 345.031 64.4792 345.281 64.5625C344.823 66.5208 344.396 67.6562 344 67.9688C342.417 69.2812 340.677 69.9375 338.781 69.9375C337.615 69.9375 336.521 69.75 335.5 69.375C334.5 69.0208 333.458 68.4583 332.375 67.6875C331.75 67.2292 330.698 66.2812 329.219 64.8438C328.281 63.9271 327.667 63.3438 327.375 63.0938C325.708 64.7604 324.469 65.8958 323.656 66.5C322.219 67.5625 320.646 68.3958 318.938 69C317.25 69.6042 315.312 69.9062 313.125 69.9062C310.438 69.9062 308.198 69.3438 306.406 68.2188C304.635 67.0938 303.344 65.6354 302.531 63.8438C301.74 62.0521 301.344 60.3438 301.344 58.7188C301.344 57.4688 301.573 56.2708 302.031 55.125C302.49 53.9583 303.094 52.9688 303.844 52.1562C304.594 51.3229 305.604 50.4688 306.875 49.5938C307.312 49.3021 308.385 48.7292 310.094 47.875C311.156 47.3542 312.312 46.9792 313.562 46.75ZM318.594 44.7812C319.76 44.2812 320.677 43.4375 321.344 42.25C322.01 41.0625 322.344 39.8021 322.344 38.4688C322.344 36.4896 321.885 34.9792 320.969 33.9375C320.052 32.875 318.885 32.3438 317.469 32.3438C316.198 32.3438 315.167 32.7292 314.375 33.5C313.583 34.25 313.188 35.1562 313.188 36.2188C313.188 37.3229 313.604 38.5312 314.438 39.8438C315.625 41.6771 317.01 43.3229 318.594 44.7812ZM326.531 61.9375L326.281 61.5938L326.188 61.4688L319.219 53.1562C318.365 52.0938 316.781 50.2917 314.469 47.75C311.865 48.7292 309.885 50.125 308.531 51.9375C307.198 53.75 306.531 55.6667 306.531 57.6875C306.531 58.25 306.698 59.0417 307.031 60.0625C307.385 61.0833 308.01 62.0833 308.906 63.0625C309.802 64.0208 310.938 64.7708 312.312 65.3125C313.688 65.8542 315.26 66.125 317.031 66.125C319.073 66.125 320.917 65.7292 322.562 64.9375C324.229 64.125 325.552 63.125 326.531 61.9375ZM366.656 33.2188C364.51 37.7604 362.292 43.875 360 51.5625L358.75 55.1562L355.625 64.875C355.354 65.5625 355.219 66.0417 355.219 66.3125C355.219 66.5 355.312 66.8125 355.5 67.25C356.125 67.4792 357.354 67.6562 359.188 67.7812C359.646 67.8021 360.417 67.8646 361.5 67.9688C361.729 68.1354 361.844 68.3021 361.844 68.4688C361.844 68.5729 361.812 68.7292 361.75 68.9375L359.594 68.9688C357.906 68.9688 355.969 68.9167 353.781 68.8125L351.594 68.75L348.656 68.8438C348.323 68.8646 348.031 68.875 347.781 68.875C347.24 68.875 346.594 68.8438 345.844 68.7812C345.844 68.4688 345.885 68.2083 345.969 68C346.26 67.8333 346.521 67.75 346.75 67.75C349.146 67.75 350.708 67.5104 351.438 67.0312C352.188 66.5521 352.969 65.375 353.781 63.5C354.615 61.625 355.958 58.0625 357.812 52.8125L359.312 48.875L362.25 40.6562C362.292 40.5729 362.979 38.75 364.312 35.1875C365.646 31.625 366.594 28.9271 367.156 27.0938L368.062 27.0312C368.438 27.0521 368.802 27.0625 369.156 27.0625C369.323 27.125 371.083 31.6354 374.438 40.5938C377.812 49.5312 380.292 56.3542 381.875 61.0625C382.729 63.3542 383.302 64.7917 383.594 65.375C383.885 65.9375 384.156 66.3125 384.406 66.5C384.656 66.6667 385.344 66.875 386.469 67.125C386.698 67.1667 387.125 67.3021 387.75 67.5312L389.031 67.9688C389.115 68.1979 389.156 68.375 389.156 68.5C389.156 68.6042 389.125 68.7604 389.062 68.9688L387.656 69L382.031 68.9062L378.531 68.8125L375.188 68.875C373.667 68.875 372.729 68.7812 372.375 68.5938C372.375 68.3021 372.427 68.0208 372.531 67.75C372.698 67.5833 373.76 67.4583 375.719 67.375C377.156 67.3125 378.062 67.1771 378.438 66.9688C378.562 66.5938 378.625 66.3125 378.625 66.125C378.625 65.75 378.354 64.7812 377.812 63.2188C377.458 62.1979 377.135 61.1979 376.844 60.2188C376.74 59.9062 375.615 56.8333 373.469 51C371.344 45.1458 369.542 40.3958 368.062 36.75L366.969 33.8125C366.927 33.6875 366.823 33.4896 366.656 33.2188ZM413.719 48.1875C413.885 42.875 415.958 38.2917 419.938 34.4375C423.917 30.5625 429.458 28.625 436.562 28.625C442.542 28.625 447.562 30.5104 451.625 34.2812C455.688 38.0312 457.719 43.2292 457.719 49.875C457.719 55.375 455.615 60.0417 451.406 63.875C447.198 67.7083 441.812 69.625 435.25 69.625C428.979 69.625 423.865 67.6875 419.906 63.8125C415.948 59.9375 413.885 55.3125 413.719 49.9375C412.948 49.9375 412.219 49.9167 411.531 49.875C410.76 49.8333 409.312 49.8125 407.188 49.8125L405.344 49.8438L403.75 49.875C402.917 49.875 402.5 50.3125 402.5 51.1875L402.531 53.375L402.375 59.2812L402.344 61.0938C402.344 63.6354 402.406 65.3021 402.531 66.0938C402.677 66.8854 402.854 67.3854 403.062 67.5938C403.292 67.7812 404.156 68.0312 405.656 68.3438C406.76 68.5729 407.49 68.7708 407.844 68.9375C407.969 69.0625 408.031 69.1667 408.031 69.25C408.031 69.5208 407.812 69.6562 407.375 69.6562C407.208 69.6562 407 69.6458 406.75 69.625L405.438 69.5938C404.375 69.5729 403.052 69.5 401.469 69.375C400.448 69.2917 399.542 69.25 398.75 69.25L392.344 69.4375L390.906 69.4688L390.938 68.7812C391.562 68.4062 392.385 68.1562 393.406 68.0312C395.156 67.8229 396.26 67.5208 396.719 67.125C397.177 66.7292 397.438 65.8646 397.5 64.5312L397.438 62.1562L397.469 59.9688L397.406 56.8438C397.406 56.0729 397.448 54.8854 397.531 53.2812L397.594 50.875L397.688 37.75L397.781 34.6875C397.781 32.5625 397.688 31.3854 397.5 31.1562C397.333 30.9271 396.479 30.7396 394.938 30.5938C393.771 30.4896 393.094 30.4167 392.906 30.375C392.802 30.1667 392.75 29.9792 392.75 29.8125C392.75 29.6458 392.76 29.4479 392.781 29.2188C393.281 29.1771 393.677 29.1562 393.969 29.1562L396.875 29.1875C398.958 29.1875 401.167 29.1042 403.5 28.9375C404.646 28.8542 406.375 28.7812 408.688 28.7188C408.729 28.9062 408.75 29.0833 408.75 29.25C408.75 29.6667 408.542 29.9062 408.125 29.9688L407.562 30C405.271 30.1458 403.865 30.4688 403.344 30.9688C402.823 31.4479 402.562 32.5938 402.562 34.4062C402.562 38.5938 402.625 42.1771 402.75 45.1562C402.771 45.4479 402.781 45.7188 402.781 45.9688C402.781 46.1354 402.771 46.2917 402.75 46.4375V46.9688C402.75 47.5312 402.781 47.8438 402.844 47.9062C402.906 47.9479 403.417 47.9688 404.375 47.9688L404.938 48C407.688 48.125 410.615 48.1875 413.719 48.1875ZM435.719 29.7812C432.656 29.7812 429.854 30.5208 427.312 32C424.771 33.4792 422.812 35.9479 421.438 39.4062C420.083 42.8438 419.406 45.9792 419.406 48.8125C419.406 52.1458 420.104 55.4271 421.5 58.6562C422.896 61.8646 424.802 64.3021 427.219 65.9688C429.656 67.6354 432.469 68.4688 435.656 68.4688C440.615 68.4688 444.583 66.875 447.562 63.6875C450.542 60.5 452.031 55.5208 452.031 48.75C452.031 42.9583 450.521 38.3542 447.5 34.9375C444.479 31.5 440.552 29.7812 435.719 29.7812ZM499.719 67.2812C500.406 67.5312 500.938 67.6875 501.312 67.75C502.042 67.8958 502.448 68.125 502.531 68.4375C502.615 68.7292 502.677 69.75 502.719 71.5C502.99 73.7708 503.448 75.9688 504.094 78.0938C503.844 78.2604 503.646 78.3438 503.5 78.3438C503.062 78.3438 502.646 77.9062 502.25 77.0312C500.917 74.0729 499.76 72.1146 498.781 71.1562C497.802 70.1979 496.406 69.5833 494.594 69.3125C492.781 69.0417 487.594 68.9062 479.031 68.9062L474.031 68.9688L471.781 68.9062C469.302 68.9896 467.594 69.2292 466.656 69.625C465.74 70.0417 464.917 70.6042 464.188 71.3125C463.479 72.0417 462.458 73.8854 461.125 76.8438C460.729 77.6979 460.323 78.125 459.906 78.125C459.74 78.125 459.531 78.0417 459.281 77.875C460.135 75.0625 460.594 72.5417 460.656 70.3125C460.698 69.1875 460.781 68.4583 460.906 68.125C461.052 67.7917 461.302 67.625 461.656 67.625H461.938C462.146 67.6458 462.365 67.6562 462.594 67.6562C464.052 67.6562 465.094 67.3958 465.719 66.875C466.344 66.3542 467.073 65.125 467.906 63.1875C468.76 61.25 470.062 57.7917 471.812 52.8125L472.562 50.8438L474.938 44.375L479.281 32.5625C480.01 30.625 480.635 28.8021 481.156 27.0938L482.406 27.0312C482.573 27.0312 482.823 27.0417 483.156 27.0625C483.927 28.625 485.542 32.7396 488 39.4062L494.75 57.9375C495.458 60.1042 496.083 61.8958 496.625 63.3125C497.188 64.7083 497.573 65.5938 497.781 65.9688C498.01 66.3438 498.656 66.7812 499.719 67.2812ZM492.438 66.9375C492.542 66.5625 492.594 66.2604 492.594 66.0312C492.594 65.4479 492.177 64.0833 491.344 61.9375L489.625 57.0938C486.979 49.5312 484.771 43.6875 483 39.5625C482.625 38.7083 482.167 37.5625 481.625 36.125C481.188 34.9167 480.938 34.2708 480.875 34.1875C479.229 37.4167 477.552 41.7708 475.844 47.25L475.219 49.2188L470.812 62.5312C470.542 63.4271 470.354 64 470.25 64.25C469.792 65.375 469.562 66.1354 469.562 66.5312C469.562 66.8438 469.76 67 470.156 67L471.344 66.9375C471.531 66.9375 471.833 66.9688 472.25 67.0312C472.688 67.0729 473.917 67.0938 475.938 67.0938L484.625 67.1875L489.812 67.0625L492.438 66.9375ZM538.625 33.4688C538.562 32.0104 538.438 31.1875 538.25 31C538.083 30.7917 537.26 30.6042 535.781 30.4375L534.781 30.2812C534.385 30.2396 534.052 30.1875 533.781 30.125C533.677 29.8333 533.625 29.4792 533.625 29.0625C534.333 28.9583 534.792 28.9062 535 28.9062L539.094 29.125C539.594 29.1667 540.958 29.1875 543.188 29.1875C544.104 29.1875 546 29.0833 548.875 28.875C548.854 29.3125 548.802 29.6875 548.719 30C548.156 30.2708 547.208 30.4688 545.875 30.5938C544.812 30.6979 544.156 30.875 543.906 31.125C543.656 31.375 543.531 32.1354 543.531 33.4062L543.562 34.875L543.594 40.7188L543.531 43.625L543.562 49.0625L543.5 54.375L543.594 58.9688C543.594 63.6354 543.719 66.125 543.969 66.4375C544.219 66.75 545.073 67.0312 546.531 67.2812C548.031 67.6354 548.938 67.8958 549.25 68.0625C549.562 68.2292 549.719 68.5 549.719 68.875C549.719 68.9583 549.677 69.0833 549.594 69.25C549.51 69.2708 549.458 69.2812 549.438 69.2812C549.333 69.2812 549.198 69.2604 549.031 69.2188C546.76 68.8021 544.406 68.5938 541.969 68.5938C539.177 68.5938 536.042 68.8542 532.562 69.375C532.521 69.1042 532.5 68.8958 532.5 68.75C532.5 68.625 532.521 68.4375 532.562 68.1875C533.104 67.8333 534.125 67.5729 535.625 67.4062C537.667 67.1979 538.688 66.3125 538.688 64.75V60.2812L538.719 59.125L538.781 57.7812L538.688 35.7812L526.75 49.1875C525.75 50.3958 524.479 51.8438 522.938 53.5312C521.375 55.2604 519.75 57.2188 518.062 59.4062L515.469 62.6875C515.469 64.1458 515.552 65.1667 515.719 65.75C515.885 66.3125 516.083 66.6562 516.312 66.7812C516.562 66.9062 517.26 67.0729 518.406 67.2812C519.927 67.6354 520.833 67.8958 521.125 68.0625C521.438 68.2292 521.594 68.5 521.594 68.875C521.594 68.9583 521.562 69.0833 521.5 69.25C521.417 69.2708 521.354 69.2812 521.312 69.2812C521.229 69.2812 521.104 69.2604 520.938 69.2188C518.667 68.8021 516.302 68.5938 513.844 68.5938C511.052 68.5938 507.917 68.8542 504.438 69.375C504.417 69.1042 504.406 68.8958 504.406 68.75C504.406 68.625 504.417 68.4375 504.438 68.1875C505 67.8333 506.021 67.5729 507.5 67.4062C509.562 67.1979 510.594 66.3125 510.594 64.75L510.562 60.2812L510.625 59.125L510.656 57.7812L510.594 54.5938L510.562 50.875V40.1875C510.562 36.7708 510.552 34.5 510.531 33.375C510.51 32.25 510.438 31.5625 510.312 31.3125C510.208 31.0625 510.083 30.8958 509.938 30.8125C509.812 30.7292 509.062 30.6042 507.688 30.4375L506.688 30.2812C506.292 30.2396 505.958 30.1875 505.688 30.125C505.583 29.8333 505.531 29.4792 505.531 29.0625C506.219 28.9583 506.667 28.9062 506.875 28.9062L510.969 29.125C511.469 29.1667 512.833 29.1875 515.062 29.1875C515.979 29.1875 517.875 29.0833 520.75 28.875C520.75 29.3125 520.708 29.6875 520.625 30C520.042 30.2708 519.094 30.4688 517.781 30.5938C516.656 30.6979 515.99 30.8854 515.781 31.1562C515.573 31.4062 515.458 32.1562 515.438 33.4062L515.469 34.875L515.5 40.7188L515.438 43.625V49.0625L515.406 54.375L515.469 60.2812L521.25 53.3438L525.625 48.4062L531.406 41.9062C534.01 38.9896 536.417 36.1771 538.625 33.4688Z" fill="white"/>
</svg>
