<svg width="276" height="100" viewBox="0 0 276 100" fill="none" xmlns="http://www.w3.org/2000/svg">
<path d="M69.4 9.24999C67.85 10.45 66 12.25 65.35 13.25L64.15 15L62.85 14C58.8 10.8 51.2 9.04999 45.8 10.05C41.45 10.8 40.9 11.3 43.9 11.7C46.2 12 51 14.7 50.35 15.3C50.2 15.45 48.2 15.3 45.85 15C38.2 13.95 30.35 16.15 25.2 20.65C23.95 21.75 23.05 22.7 23.15 22.8C23.2 22.9 24.4 22.65 25.75 22.25C29.35 21.15 33.15 21.3 35.65 22.6L37.75 23.75L32.25 24.05C26.4 24.4 24.25 25 19.35 27.6C16.65 29.05 10.1 34.75 10.6 35.25C10.7 35.35 11.9 34.95 13.25 34.3C16.55 32.7 20.25 32 24.65 32.05H28.25L23.75 33.3C14.3 35.9 6.25001 41.05 3.35001 46.4C1.70001 49.4 0.900014 53.4 1.35001 56.15L1.65001 58.2L2.55001 55.6C4.65001 49.4 10.1 44.6 19.15 41.05C24 39.1 25 39.1 21.75 41C12.6 46.35 5.05001 55.15 2.75001 63.15C1.65001 67.05 1.90001 73.4 3.30001 76.5L4.35001 78.75V75.65C4.40001 72.15 5.60001 68 6.95002 66.8C7.85002 66 7.85002 66.05 7.60002 68.25C7.10002 73.1 10.2 80.2 14.85 84.65L16.85 86.55L15.2 83.15C12.85 78.4 12 74.6 12 69C12 63.75 13.15 58.6 15.25 54.6C16.65 51.9 18.8 48.75 18.2 50.25C15.2 58.1 14.35 63.3 15.1 69.4C16.3 79.35 22.8 88.3 30.45 90.5C31.9 90.9 31.8 90.75 29.3 88.45C25.8 85.25 23.75 82.1 22.5 78.1C21.05 73.4 21.25 73.05 23.5 76.4C25.25 79.05 27.15 80.85 29.45 82.25C29.85 82.5 29.6 81.9 28.85 80.95C27 78.55 25.5 75.05 25.5 73.15C25.5 72.1 25 70.95 24 69.8C22.2 67.8 20.65 64.45 20.2 61.7C19.6 57.8 21.95 50.6 25.05 47C26.2 45.6 26.2 45.65 23.95 51.25C22.5 54.7 22.3 55.85 22.3 59.75C22.25 63.55 22.45 64.65 23.55 67C25.3 70.7 27.6 73.3 30.65 74.85L33.2 76.1L31.05 73.7C28.35 70.6 27.05 68.05 26.5 64.8C26 61.85 26.6 60.75 27.5 62.95C27.85 63.8 28.4 64.7 28.8 65C29.35 65.5 29.4 65 29.15 62.15C28.85 58.6 29.75 54.25 31.1 52.35C31.65 51.6 31.7 52.1 31.6 55.5C31.4 60.2 32.1 62.8 34.6 66.35L36.25 68.75L36.65 64C37.6 52.4 42.4 42.85 50.3 37.1C52.85 35.2 53.85 34.1 55 31.75C56.7 28.25 57.7 27 60.25 25.3L62.1 24L63.65 25.3C64.9 26.35 65.55 26.5 67.9 26.4L70.65 26.25L72.7 29.15C73.8 30.75 75.75 32.8 77 33.7C80.3 36.15 80.9 37 82.55 41.55C83.35 43.85 85.85 49.45 88.05 54C92.25 62.5 94 66.9 94 68.7C94 69.7 93.95 69.7 93.2 68.6C92.05 66.95 89.5 67.25 88.6 69.15C88.05 70.35 88 71.15 88.55 73.7C89.25 77.4 88.95 78.65 87.4 78.4C86.55 78.3 85.75 77.25 84.25 74.35C82.5 71 81.7 70.05 78.2 67.3C74.25 64.2 72.7 62.05 73.1 60.15C73.2 59.6 73.8 59.2 74.7 59.1C76.95 58.85 78.35 59.4 80.6 61.4L82.65 63.25L81.75 61.5C81.3 60.55 79.9 58.45 78.7 56.9C77.45 55.3 75.95 53.1 75.3 52L74.15 49.95L73.9 52.2C73.55 54.95 72.1 57.85 70.4 59.15C69 60.2 65.3 60.8 63.3 60.3C62.65 60.15 61.35 59.25 60.45 58.4C55.9 53.8 55.6 45.2 59.8 38.85C60.8 37.3 60.9 37.05 60.15 37.4C57.45 38.9 54.9 43.15 54.05 47.55C53.8 49.15 52.45 52.4 51.05 55.05C49.7 57.65 47.95 61.75 47.25 64.25C44.9 72.15 45 82.9 47.45 90.15L48.35 92.75L48.6 84.75C48.95 75.45 50.25 69.6 53.55 62.5L55.55 58.25L56.9 59.8C58.95 62.15 61.1 63.4 64.05 64.05C66.05 64.45 67.6 65.3 70 67.2C71.8 68.65 74.45 70.65 75.9 71.7C78.95 73.9 79.5 74.75 79.5 77.35C79.5 79.9 80.6 81.35 83 82.05C84.7 82.55 85.45 82.5 87.9 81.75C92.7 80.25 92.9 80.1 94.2 77.65C94.85 76.35 95.9 74.8 96.5 74.25C97.15 73.7 97.95 72.5 98.35 71.6C99.15 69.7 99.55 70.8 92.8 56.35C88.05 46.25 87.9 45.9 87.85 42.1L87.75 38.25L85.8 37L83.85 35.75L87.05 35.45C90.55 35.15 93.5 34.05 90.9 34C89 34 89.15 33.35 91.2 32.6C92.1 32.25 93.3 31.5 93.8 30.95L94.75 29.9L92.7 30.2C89.7 30.7 87.8 29.7 83.65 25.35C80.05 21.65 79.55 20.75 80.45 19.1C80.9 18.3 82.55 9.39999 82.35 9.14999C81.9 8.74999 76.8 13.45 75.75 15.2C74.3 17.7 73.15 18.4 72.6 17.1C72.15 15.95 72.15 10.1 72.65 8.34999C72.85 7.59999 72.85 6.99999 72.65 6.99999C72.4 6.99999 70.95 7.99999 69.4 9.24999ZM68 14.2C67.75 14.95 67.5 17.3 67.5 19.45C67.5 22.4 67.3 23.55 66.7 24C64.6 25.8 63.5 20.4 65.25 16.95C67.2 13.15 69.15 11.2 68 14.2ZM84.05 78.8C84.4 79.2 84.5 79.65 84.35 79.8C83.85 80.3 82.6 77.8 82.3 75.75L82 73.75L82.75 75.95C83.15 77.15 83.75 78.45 84.05 78.8Z" fill="#FFBA61"/>
<path d="M70.8999 38.3499C69.1499 38.5999 69.1499 38.8999 70.9999 41.3999C72.6999 43.7499 73.4999 44.2499 76.2499 44.6499C77.3499 44.7999 78.6499 45.0499 79.1499 45.2499C79.8999 45.5499 79.9999 45.2999 79.9999 43.2499C79.9999 41.3499 79.7499 40.6499 78.5499 39.4499C77.2999 38.1999 76.6999 37.9999 74.6499 38.0499C73.3499 38.0999 71.6499 38.2499 70.8999 38.3499ZM74.2999 40.2499C75.1999 40.9999 75.1999 40.9999 73.7999 40.8999C72.9999 40.7999 72.2499 40.4499 72.0999 40.0999C71.8499 39.2499 73.0999 39.3499 74.2999 40.2499Z" fill="#FFBA61"/>
<path d="M114.828 49.125C115.914 48.8516 116.691 48.5195 117.16 48.1289C117.629 47.7383 118.07 47.1641 118.484 46.4062C119.32 44.8438 119.906 43.8477 120.242 43.418C120.586 42.9805 120.965 42.6133 121.379 42.3164C121.801 42.0117 122.227 41.8594 122.656 41.8594C123.102 41.8594 123.469 41.9922 123.758 42.2578C124.047 42.5234 124.191 42.8203 124.191 43.1484C124.191 43.4141 124.098 43.6797 123.91 43.9453C123.73 44.2109 123.469 44.3438 123.125 44.3438C122.586 44.3438 122.188 44.0469 121.93 43.4531C121.797 43.1641 121.664 43.0195 121.531 43.0195C121.406 43.0195 121.203 43.125 120.922 43.3359C120.648 43.5469 120.094 44.4062 119.258 45.9141C118.82 46.7188 118.426 47.3594 118.074 47.8359C117.73 48.3125 117.176 48.6992 116.41 48.9961C117.113 49.0039 117.66 49.1016 118.051 49.2891C118.441 49.4688 118.867 49.7969 119.328 50.2734C119.797 50.7422 120.816 52.1172 122.387 54.3984C122.895 55.1328 123.32 55.6641 123.664 55.9922C124.008 56.3203 124.465 56.5195 125.035 56.5898C125.41 56.6445 125.629 56.6875 125.691 56.7188C125.762 56.75 125.797 56.8047 125.797 56.8828L125.785 57.0352C125.777 57.1055 125.738 57.1406 125.668 57.1406C125.262 57.1406 124.75 57.1133 124.133 57.0586C123.75 57.0273 123.434 57.0117 123.184 57.0117C122.879 57.0117 122.469 57.0547 121.953 57.1406C121.227 55.9531 120.328 54.6055 119.258 53.0977C118.195 51.582 117.402 50.6523 116.879 50.3086C116.355 49.957 115.668 49.7695 114.816 49.7461L114.805 51.4922C114.805 51.9609 114.82 52.5078 114.852 53.1328C114.883 53.8438 114.898 54.6914 114.898 55.6758C114.898 56.0117 115.016 56.2461 115.25 56.3789C115.492 56.5039 115.875 56.5898 116.398 56.6367C116.555 56.6523 116.691 56.6797 116.809 56.7188C116.855 56.8203 116.879 56.9062 116.879 56.9766C116.879 57.0625 116.832 57.1367 116.738 57.1992L116.363 57.2109C116.207 57.2109 115.832 57.1836 115.238 57.1289C114.645 57.0742 114.203 57.0469 113.914 57.0469C113.672 57.0469 113.359 57.0703 112.977 57.1172C112.5 57.1719 111.855 57.1992 111.043 57.1992H110.703L110.68 56.8477C110.711 56.7773 110.77 56.7344 110.855 56.7188C111.645 56.6484 112.266 56.5078 112.719 56.2969C112.875 56.1719 112.953 55.9297 112.953 55.5703L112.941 54.4453V52.2656L112.965 51.3164L112.895 48.0586L112.918 45.9375L112.895 44.2383C112.887 43.5195 112.82 43.0781 112.695 42.9141C112.57 42.8203 112.352 42.7617 112.039 42.7383L111.852 42.7031C111.695 42.6797 111.426 42.6562 111.043 42.6328C110.934 42.5547 110.879 42.4609 110.879 42.3516C110.879 42.3125 110.895 42.2539 110.926 42.1758L111.535 42.1406C113.691 42.1406 115.176 42.1016 115.988 42.0234C116.207 42.0469 116.512 42.0586 116.902 42.0586C116.988 42.1055 117.031 42.1602 117.031 42.2227C117.031 42.2695 117.023 42.3203 117.008 42.375C116.969 42.4141 116.793 42.4531 116.48 42.4922C115.824 42.5625 115.387 42.6914 115.168 42.8789C114.957 43.0664 114.852 43.3828 114.852 43.8281L114.863 44.0508L114.84 48.457L114.828 49.125ZM126.945 49.5117C126.945 48.7148 127.039 48.0078 127.227 47.3906C127.422 46.7656 127.746 46.0898 128.199 45.3633C128.652 44.6367 129.199 44.0312 129.84 43.5469C130.48 43.0547 131.367 42.6211 132.5 42.2461C133.297 41.9883 134.305 41.8594 135.523 41.8594C136.344 41.8594 137.145 41.9688 137.926 42.1875C138.715 42.4062 139.43 42.7109 140.07 43.1016C140.711 43.4922 141.352 44.0938 141.992 44.9062C142.438 45.4688 142.773 46.0742 143 46.7227C143.297 47.5742 143.445 48.4531 143.445 49.3594C143.445 50.3906 143.344 51.2461 143.141 51.9258C142.945 52.6055 142.613 53.2773 142.145 53.9414C141.777 54.457 141.148 55.0508 140.258 55.7227C139.664 56.1758 138.926 56.543 138.043 56.8242C137.16 57.0977 136.207 57.2344 135.184 57.2344C134.145 57.2344 133.219 57.1133 132.406 56.8711C131.594 56.6289 130.914 56.3359 130.367 55.9922C129.828 55.6406 129.27 55.125 128.691 54.4453C128.121 53.7656 127.688 53.0156 127.391 52.1953C127.094 51.375 126.945 50.4805 126.945 49.5117ZM135.078 56.8008C135.734 56.8008 136.414 56.7109 137.117 56.5312C137.828 56.3438 138.457 56.0391 139.004 55.6172C139.551 55.1875 139.977 54.7031 140.281 54.1641C140.594 53.6172 140.844 52.918 141.031 52.0664C141.219 51.2148 141.312 50.3633 141.312 49.5117C141.312 48.4492 141.156 47.3984 140.844 46.3594C140.602 45.5703 140.207 44.8672 139.66 44.25C139.113 43.625 138.453 43.1445 137.68 42.8086C136.906 42.4648 136.082 42.293 135.207 42.293C134.496 42.293 133.801 42.4102 133.121 42.6445C132.441 42.8789 131.883 43.1797 131.445 43.5469C131.008 43.9062 130.602 44.4219 130.227 45.0938C129.852 45.7578 129.566 46.4922 129.371 47.2969C129.176 48.1016 129.078 48.8125 129.078 49.4297C129.078 50.0781 129.176 50.8125 129.371 51.6328C129.566 52.4531 129.832 53.1641 130.168 53.7656C130.512 54.3672 130.93 54.9023 131.422 55.3711C131.922 55.832 132.48 56.1875 133.098 56.4375C133.715 56.6797 134.375 56.8008 135.078 56.8008ZM145.051 57.1758L145.062 56.918C145.328 56.7695 145.637 56.6758 145.988 56.6367C146.543 56.5664 146.895 56.4961 147.043 56.4258C147.191 56.3477 147.297 56.2422 147.359 56.1094C147.469 55.8516 147.523 55.5898 147.523 55.3242L147.5 54.4336L147.512 53.6133L147.488 52.6523C147.488 52.2539 147.5 51.7578 147.523 51.1641C147.547 50.5625 147.559 50.2422 147.559 50.2031V47.0039C147.559 46.4961 147.57 45.9492 147.594 45.3633C147.617 44.7695 147.629 44.3594 147.629 44.1328C147.629 43.4609 147.613 43.0703 147.582 42.9609C147.551 42.8516 147.492 42.7734 147.406 42.7266C147.32 42.6797 147.039 42.6367 146.562 42.5977C146.195 42.5664 145.941 42.5391 145.801 42.5156C145.762 42.4297 145.742 42.3594 145.742 42.3047C145.742 42.2422 145.746 42.168 145.754 42.082C145.941 42.0664 146.086 42.0586 146.188 42.0586L147.289 42.0703C148.07 42.0703 148.898 42.0391 149.773 41.9766C150.203 41.9453 150.852 41.918 151.719 41.8945C151.734 41.9648 151.742 42.0312 151.742 42.0938C151.742 42.1719 151.723 42.2344 151.684 42.2812C151.652 42.3203 151.594 42.3477 151.508 42.3633C150.484 42.4492 149.879 42.5781 149.691 42.75C149.512 42.9141 149.422 43.3398 149.422 44.0273C149.422 45.293 149.441 46.5977 149.48 47.9414L149.527 49.043C149.566 49.0742 150.074 49.1133 151.051 49.1602C151.316 49.1758 151.473 49.1836 151.52 49.1836L153.242 49.1602L154.379 49.1953L157.355 49.1016C157.723 49.0938 157.945 49.0781 158.023 49.0547C158.07 47.6953 158.094 46.3789 158.094 45.1055C158.094 43.8789 158.066 43.1562 158.012 42.9375C157.98 42.8047 157.926 42.7148 157.848 42.668C157.801 42.6445 157.395 42.582 156.629 42.4805C156.496 42.4648 156.371 42.4453 156.254 42.4219C156.215 42.3047 156.195 42.1719 156.195 42.0234C156.461 41.9844 156.629 41.9648 156.699 41.9648L157.473 42.0117C158.184 42.0508 158.898 42.0703 159.617 42.0703C160.078 42.0703 160.844 42.0312 161.914 41.9531C161.906 42.1094 161.887 42.25 161.855 42.375C161.559 42.4922 161.203 42.5664 160.789 42.5977C160.523 42.6133 160.301 42.6562 160.121 42.7266C159.973 42.8359 159.898 43.0586 159.898 43.3945C159.898 43.4727 159.902 43.5586 159.91 43.6523C159.918 43.9336 159.922 44.1172 159.922 44.2031V45.5508L159.934 46.3945L159.91 47.4844L159.922 49.5234L159.898 51.4453C159.898 51.8281 159.91 52.4258 159.934 53.2383L159.922 54.8203C159.922 55.3516 159.969 55.7305 160.062 55.957C160.109 56.0664 160.188 56.1445 160.297 56.1914L161.246 56.4023C161.715 56.5195 161.992 56.6172 162.078 56.6953C162.172 56.7656 162.219 56.8516 162.219 56.9531L162.184 57.0938L162.125 57.1055C162.086 57.1055 162.035 57.0977 161.973 57.082C161.121 56.9258 160.227 56.8477 159.289 56.8477C158.555 56.8477 158.031 56.8594 157.719 56.8828C157.414 56.9062 156.773 56.9922 155.797 57.1406C155.781 57.0391 155.773 56.9648 155.773 56.918C155.773 56.8633 155.781 56.7891 155.797 56.6953C156.039 56.5547 156.422 56.457 156.945 56.4023C157.336 56.3633 157.645 56.2383 157.871 56.0273C158.02 55.8867 158.094 55.6797 158.094 55.4062L158.082 53.7188C158.105 53.2109 158.117 52.9336 158.117 52.8867C158.117 52.2227 158.105 51.2539 158.082 49.9805C158.059 49.8711 158.016 49.8047 157.953 49.7812C157.742 49.7109 156.703 49.7266 154.836 49.8281C154.461 49.8516 154.18 49.8633 153.992 49.8633C153.805 49.8633 153.41 49.8555 152.809 49.8398C152.215 49.8164 151.664 49.8047 151.156 49.8047C150.883 49.8047 150.652 49.8086 150.465 49.8164C150.105 49.8242 149.906 49.8281 149.867 49.8281C149.688 49.8281 149.562 49.8633 149.492 49.9336C149.43 50.0039 149.398 50.1328 149.398 50.3203L149.41 51.1406C149.41 51.2734 149.391 52.0117 149.352 53.3555C149.344 53.6289 149.34 53.8555 149.34 54.0352C149.34 55.1055 149.379 55.8164 149.457 56.168C149.496 56.332 149.566 56.4453 149.668 56.5078C149.738 56.5547 150.043 56.6367 150.582 56.7539C150.941 56.832 151.215 56.9062 151.402 56.9766L151.473 57.0938C151.473 57.1328 151.457 57.1641 151.426 57.1875C151.379 57.2266 151.312 57.2461 151.227 57.2461C151.164 57.2461 151.09 57.2422 151.004 57.2344C150.918 57.2344 150.75 57.2305 150.5 57.2227C150.102 57.2148 149.605 57.1875 149.012 57.1406C148.629 57.1094 148.289 57.0938 147.992 57.0938C147.492 57.0938 146.691 57.1172 145.59 57.1641C145.379 57.1719 145.199 57.1758 145.051 57.1758ZM176.328 43.6758C176.305 43.1289 176.258 42.8203 176.188 42.75C176.125 42.6719 175.816 42.6016 175.262 42.5391L174.887 42.4805C174.738 42.4648 174.613 42.4453 174.512 42.4219C174.473 42.3125 174.453 42.1797 174.453 42.0234C174.719 41.9844 174.891 41.9648 174.969 41.9648L176.504 42.0469C176.691 42.0625 177.203 42.0703 178.039 42.0703C178.383 42.0703 179.094 42.0312 180.172 41.9531C180.164 42.1172 180.145 42.2578 180.113 42.375C179.902 42.4766 179.547 42.5508 179.047 42.5977C178.648 42.6367 178.402 42.7031 178.309 42.7969C178.215 42.8906 178.168 43.1758 178.168 43.6523L178.18 44.2031L178.191 46.3945L178.168 47.4844L178.18 49.5234L178.156 51.5156L178.191 53.2383C178.191 54.9883 178.238 55.9219 178.332 56.0391C178.426 56.1562 178.746 56.2617 179.293 56.3555C179.855 56.4883 180.195 56.5859 180.312 56.6484C180.43 56.7109 180.488 56.8125 180.488 56.9531C180.488 56.9844 180.473 57.0312 180.441 57.0938C180.41 57.1016 180.391 57.1055 180.383 57.1055C180.344 57.1055 180.293 57.0977 180.23 57.082C179.379 56.9258 178.496 56.8477 177.582 56.8477C176.535 56.8477 175.359 56.9453 174.055 57.1406C174.039 57.0391 174.031 56.9609 174.031 56.9062C174.031 56.8594 174.039 56.7891 174.055 56.6953C174.258 56.5625 174.641 56.4648 175.203 56.4023C175.969 56.3242 176.352 55.9922 176.352 55.4062V53.7305L176.363 53.2969L176.387 52.793L176.352 44.543L171.875 49.5703C171.5 50.0234 171.023 50.5664 170.445 51.1992C169.859 51.8477 169.25 52.582 168.617 53.4023L167.645 54.6328C167.645 55.1797 167.676 55.5625 167.738 55.7812C167.801 55.9922 167.875 56.1211 167.961 56.168C168.055 56.2148 168.316 56.2773 168.746 56.3555C169.316 56.4883 169.656 56.5859 169.766 56.6484C169.883 56.7109 169.941 56.8125 169.941 56.9531C169.941 56.9844 169.93 57.0312 169.906 57.0938C169.875 57.1016 169.852 57.1055 169.836 57.1055C169.805 57.1055 169.758 57.0977 169.695 57.082C168.844 56.9258 167.957 56.8477 167.035 56.8477C165.988 56.8477 164.812 56.9453 163.508 57.1406C163.5 57.0391 163.496 56.9609 163.496 56.9062C163.496 56.8594 163.5 56.7891 163.508 56.6953C163.719 56.5625 164.102 56.4648 164.656 56.4023C165.43 56.3242 165.816 55.9922 165.816 55.4062L165.805 53.7305L165.828 53.2969L165.84 52.793L165.816 51.5977L165.805 50.2031V46.1953C165.805 44.9141 165.801 44.0625 165.793 43.6406C165.785 43.2188 165.758 42.9609 165.711 42.8672C165.672 42.7734 165.625 42.7109 165.57 42.6797C165.523 42.6484 165.242 42.6016 164.727 42.5391L164.352 42.4805C164.203 42.4648 164.078 42.4453 163.977 42.4219C163.938 42.3125 163.918 42.1797 163.918 42.0234C164.176 41.9844 164.344 41.9648 164.422 41.9648L165.957 42.0469C166.145 42.0625 166.656 42.0703 167.492 42.0703C167.836 42.0703 168.547 42.0312 169.625 41.9531C169.625 42.1172 169.609 42.2578 169.578 42.375C169.359 42.4766 169.004 42.5508 168.512 42.5977C168.09 42.6367 167.84 42.707 167.762 42.8086C167.684 42.9023 167.641 43.1836 167.633 43.6523L167.645 44.2031L167.656 46.3945L167.633 47.4844V49.5234L167.621 51.5156L167.645 53.7305L169.812 51.1289L171.453 49.2773L173.621 46.8398C174.598 45.7461 175.5 44.6914 176.328 43.6758ZM186.336 48.6562C185.602 47.7188 185.129 47.0273 184.918 46.582C184.715 46.1367 184.613 45.7148 184.613 45.3164C184.613 44.6289 184.898 44.0273 185.469 43.5117C186.039 42.9961 186.852 42.7383 187.906 42.7383C188.883 42.7383 189.637 42.9883 190.168 43.4883C190.707 43.9883 190.977 44.6094 190.977 45.3516C190.977 46.0547 190.797 46.6406 190.438 47.1094C190.078 47.5781 189.484 47.9961 188.656 48.3633C188.93 48.7461 189.367 49.2773 189.969 49.957C190.172 50.1836 190.324 50.3633 190.426 50.4961L192.43 52.9922C193.094 52.2422 193.582 51.5625 193.895 50.9531C194.215 50.3359 194.375 49.8633 194.375 49.5352C194.375 49.3086 194.301 49.1133 194.152 48.9492C194.012 48.7852 193.766 48.6562 193.414 48.5625C193.383 48.4844 193.367 48.4258 193.367 48.3867L193.391 48.2812L194.738 48.1523C195.012 48.1133 195.398 48.0859 195.898 48.0703C196.398 48.0547 197.094 48.0117 197.984 47.9414L198.008 48.082C198.008 48.1289 197.992 48.1953 197.961 48.2812C197.414 48.5156 196.945 48.7852 196.555 49.0898C196.172 49.3867 195.586 49.9961 194.797 50.918C194.016 51.832 193.344 52.6758 192.781 53.4492C193.773 54.6367 194.469 55.3672 194.867 55.6406C195.273 55.9062 195.707 56.0391 196.168 56.0391C196.676 56.0391 197.117 55.8867 197.492 55.582C197.742 55.3867 197.922 55.2891 198.031 55.2891C198.07 55.2891 198.137 55.3047 198.23 55.3359C198.059 56.0703 197.898 56.4961 197.75 56.6133C197.156 57.1055 196.504 57.3516 195.793 57.3516C195.355 57.3516 194.945 57.2812 194.562 57.1406C194.188 57.0078 193.797 56.7969 193.391 56.5078C193.156 56.3359 192.762 55.9805 192.207 55.4414C191.855 55.0977 191.625 54.8789 191.516 54.7852C190.891 55.4102 190.426 55.8359 190.121 56.0625C189.582 56.4609 188.992 56.7734 188.352 57C187.719 57.2266 186.992 57.3398 186.172 57.3398C185.164 57.3398 184.324 57.1289 183.652 56.707C182.988 56.2852 182.504 55.7383 182.199 55.0664C181.902 54.3945 181.754 53.7539 181.754 53.1445C181.754 52.6758 181.84 52.2266 182.012 51.7969C182.184 51.3594 182.41 50.9883 182.691 50.6836C182.973 50.3711 183.352 50.0508 183.828 49.7227C183.992 49.6133 184.395 49.3984 185.035 49.0781C185.434 48.8828 185.867 48.7422 186.336 48.6562ZM188.223 47.918C188.66 47.7305 189.004 47.4141 189.254 46.9688C189.504 46.5234 189.629 46.0508 189.629 45.5508C189.629 44.8086 189.457 44.2422 189.113 43.8516C188.77 43.4531 188.332 43.2539 187.801 43.2539C187.324 43.2539 186.938 43.3984 186.641 43.6875C186.344 43.9688 186.195 44.3086 186.195 44.707C186.195 45.1211 186.352 45.5742 186.664 46.0664C187.109 46.7539 187.629 47.3711 188.223 47.918ZM191.199 54.3516L191.105 54.2227L191.07 54.1758L188.457 51.0586C188.137 50.6602 187.543 49.9844 186.676 49.0312C185.699 49.3984 184.957 49.9219 184.449 50.6016C183.949 51.2812 183.699 52 183.699 52.7578C183.699 52.9688 183.762 53.2656 183.887 53.6484C184.02 54.0312 184.254 54.4062 184.59 54.7734C184.926 55.1328 185.352 55.4141 185.867 55.6172C186.383 55.8203 186.973 55.9219 187.637 55.9219C188.402 55.9219 189.094 55.7734 189.711 55.4766C190.336 55.1719 190.832 54.7969 191.199 54.3516ZM206.246 43.582C205.441 45.2852 204.609 47.5781 203.75 50.4609L203.281 51.8086L202.109 55.4531C202.008 55.7109 201.957 55.8906 201.957 55.9922C201.957 56.0625 201.992 56.1797 202.062 56.3438C202.297 56.4297 202.758 56.4961 203.445 56.543C203.617 56.5508 203.906 56.5742 204.312 56.6133C204.398 56.6758 204.441 56.7383 204.441 56.8008C204.441 56.8398 204.43 56.8984 204.406 56.9766L203.598 56.9883C202.965 56.9883 202.238 56.9688 201.418 56.9297L200.598 56.9062L199.496 56.9414C199.371 56.9492 199.262 56.9531 199.168 56.9531C198.965 56.9531 198.723 56.9414 198.441 56.918C198.441 56.8008 198.457 56.7031 198.488 56.625C198.598 56.5625 198.695 56.5312 198.781 56.5312C199.68 56.5312 200.266 56.4414 200.539 56.2617C200.82 56.082 201.113 55.6406 201.418 54.9375C201.73 54.2344 202.234 52.8984 202.93 50.9297L203.492 49.4531L204.594 46.3711C204.609 46.3398 204.867 45.6562 205.367 44.3203C205.867 42.9844 206.223 41.9727 206.434 41.2852L206.773 41.2617C206.914 41.2695 207.051 41.2734 207.184 41.2734C207.246 41.2969 207.906 42.9883 209.164 46.3477C210.43 49.6992 211.359 52.2578 211.953 54.0234C212.273 54.8828 212.488 55.4219 212.598 55.6406C212.707 55.8516 212.809 55.9922 212.902 56.0625C212.996 56.125 213.254 56.2031 213.676 56.2969C213.762 56.3125 213.922 56.3633 214.156 56.4492L214.637 56.6133C214.668 56.6992 214.684 56.7656 214.684 56.8125C214.684 56.8516 214.672 56.9102 214.648 56.9883L214.121 57L212.012 56.9648L210.699 56.9297L209.445 56.9531C208.875 56.9531 208.523 56.918 208.391 56.8477C208.391 56.7383 208.41 56.6328 208.449 56.5312C208.512 56.4688 208.91 56.4219 209.645 56.3906C210.184 56.3672 210.523 56.3164 210.664 56.2383C210.711 56.0977 210.734 55.9922 210.734 55.9219C210.734 55.7812 210.633 55.418 210.43 54.832C210.297 54.4492 210.176 54.0742 210.066 53.707C210.027 53.5898 209.605 52.4375 208.801 50.25C208.004 48.0547 207.328 46.2734 206.773 44.9062L206.363 43.8047C206.348 43.7578 206.309 43.6836 206.246 43.582ZM223.895 49.1953C223.957 47.2031 224.734 45.4844 226.227 44.0391C227.719 42.5859 229.797 41.8594 232.461 41.8594C234.703 41.8594 236.586 42.5664 238.109 43.9805C239.633 45.3867 240.395 47.3359 240.395 49.8281C240.395 51.8906 239.605 53.6406 238.027 55.0781C236.449 56.5156 234.43 57.2344 231.969 57.2344C229.617 57.2344 227.699 56.5078 226.215 55.0547C224.73 53.6016 223.957 51.8672 223.895 49.8516C223.605 49.8516 223.332 49.8438 223.074 49.8281C222.785 49.8125 222.242 49.8047 221.445 49.8047L220.754 49.8164L220.156 49.8281C219.844 49.8281 219.688 49.9922 219.688 50.3203L219.699 51.1406L219.641 53.3555L219.629 54.0352C219.629 54.9883 219.652 55.6133 219.699 55.9102C219.754 56.207 219.82 56.3945 219.898 56.4727C219.984 56.543 220.309 56.6367 220.871 56.7539C221.285 56.8398 221.559 56.9141 221.691 56.9766C221.738 57.0234 221.762 57.0625 221.762 57.0938C221.762 57.1953 221.68 57.2461 221.516 57.2461C221.453 57.2461 221.375 57.2422 221.281 57.2344L220.789 57.2227C220.391 57.2148 219.895 57.1875 219.301 57.1406C218.918 57.1094 218.578 57.0938 218.281 57.0938L215.879 57.1641L215.34 57.1758L215.352 56.918C215.586 56.7773 215.895 56.6836 216.277 56.6367C216.934 56.5586 217.348 56.4453 217.52 56.2969C217.691 56.1484 217.789 55.8242 217.812 55.3242L217.789 54.4336L217.801 53.6133L217.777 52.4414C217.777 52.1523 217.793 51.707 217.824 51.1055L217.848 50.2031L217.883 45.2812L217.918 44.1328C217.918 43.3359 217.883 42.8945 217.812 42.8086C217.75 42.7227 217.43 42.6523 216.852 42.5977C216.414 42.5586 216.16 42.5312 216.09 42.5156C216.051 42.4375 216.031 42.3672 216.031 42.3047C216.031 42.2422 216.035 42.168 216.043 42.082C216.23 42.0664 216.379 42.0586 216.488 42.0586L217.578 42.0703C218.359 42.0703 219.188 42.0391 220.062 41.9766C220.492 41.9453 221.141 41.918 222.008 41.8945C222.023 41.9648 222.031 42.0312 222.031 42.0938C222.031 42.25 221.953 42.3398 221.797 42.3633L221.586 42.375C220.727 42.4297 220.199 42.5508 220.004 42.7383C219.809 42.918 219.711 43.3477 219.711 44.0273C219.711 45.5977 219.734 46.9414 219.781 48.0586C219.789 48.168 219.793 48.2695 219.793 48.3633C219.793 48.4258 219.789 48.4844 219.781 48.5391V48.7383C219.781 48.9492 219.793 49.0664 219.816 49.0898C219.84 49.1055 220.031 49.1133 220.391 49.1133L220.602 49.125C221.633 49.1719 222.73 49.1953 223.895 49.1953ZM232.145 42.293C230.996 42.293 229.945 42.5703 228.992 43.125C228.039 43.6797 227.305 44.6055 226.789 45.9023C226.281 47.1914 226.027 48.3672 226.027 49.4297C226.027 50.6797 226.289 51.9102 226.812 53.1211C227.336 54.3242 228.051 55.2383 228.957 55.8633C229.871 56.4883 230.926 56.8008 232.121 56.8008C233.98 56.8008 235.469 56.2031 236.586 55.0078C237.703 53.8125 238.262 51.9453 238.262 49.4062C238.262 47.2344 237.695 45.5078 236.562 44.2266C235.43 42.9375 233.957 42.293 232.145 42.293ZM256.145 56.3555C256.402 56.4492 256.602 56.5078 256.742 56.5312C257.016 56.5859 257.168 56.6719 257.199 56.7891C257.23 56.8984 257.254 57.2812 257.27 57.9375C257.371 58.7891 257.543 59.6133 257.785 60.4102C257.691 60.4727 257.617 60.5039 257.562 60.5039C257.398 60.5039 257.242 60.3398 257.094 60.0117C256.594 58.9023 256.16 58.168 255.793 57.8086C255.426 57.4492 254.902 57.2188 254.223 57.1172C253.543 57.0156 251.598 56.9648 248.387 56.9648L246.512 56.9883L245.668 56.9648C244.738 56.9961 244.098 57.0859 243.746 57.2344C243.402 57.3906 243.094 57.6016 242.82 57.8672C242.555 58.1406 242.172 58.832 241.672 59.9414C241.523 60.2617 241.371 60.4219 241.215 60.4219C241.152 60.4219 241.074 60.3906 240.98 60.3281C241.301 59.2734 241.473 58.3281 241.496 57.4922C241.512 57.0703 241.543 56.7969 241.59 56.6719C241.645 56.5469 241.738 56.4844 241.871 56.4844H241.977C242.055 56.4922 242.137 56.4961 242.223 56.4961C242.77 56.4961 243.16 56.3984 243.395 56.2031C243.629 56.0078 243.902 55.5469 244.215 54.8203C244.535 54.0938 245.023 52.7969 245.68 50.9297L245.961 50.1914L246.852 47.7656L248.48 43.3359C248.754 42.6094 248.988 41.9258 249.184 41.2852L249.652 41.2617C249.715 41.2617 249.809 41.2656 249.934 41.2734C250.223 41.8594 250.828 43.4023 251.75 45.9023L254.281 52.8516C254.547 53.6641 254.781 54.3359 254.984 54.8672C255.195 55.3906 255.34 55.7227 255.418 55.8633C255.504 56.0039 255.746 56.168 256.145 56.3555ZM253.414 56.2266C253.453 56.0859 253.473 55.9727 253.473 55.8867C253.473 55.668 253.316 55.1562 253.004 54.3516L252.359 52.5352C251.367 49.6992 250.539 47.5078 249.875 45.9609C249.734 45.6406 249.562 45.2109 249.359 44.6719C249.195 44.2188 249.102 43.9766 249.078 43.9453C248.461 45.1562 247.832 46.7891 247.191 48.8438L246.957 49.582L245.305 54.5742C245.203 54.9102 245.133 55.125 245.094 55.2188C244.922 55.6406 244.836 55.9258 244.836 56.0742C244.836 56.1914 244.91 56.25 245.059 56.25L245.504 56.2266C245.574 56.2266 245.688 56.2383 245.844 56.2617C246.008 56.2773 246.469 56.2852 247.227 56.2852L250.484 56.3203L252.43 56.2734L253.414 56.2266ZM270.734 43.6758C270.711 43.1289 270.664 42.8203 270.594 42.75C270.531 42.6719 270.223 42.6016 269.668 42.5391L269.293 42.4805C269.145 42.4648 269.02 42.4453 268.918 42.4219C268.879 42.3125 268.859 42.1797 268.859 42.0234C269.125 41.9844 269.297 41.9648 269.375 41.9648L270.91 42.0469C271.098 42.0625 271.609 42.0703 272.445 42.0703C272.789 42.0703 273.5 42.0312 274.578 41.9531C274.57 42.1172 274.551 42.2578 274.52 42.375C274.309 42.4766 273.953 42.5508 273.453 42.5977C273.055 42.6367 272.809 42.7031 272.715 42.7969C272.621 42.8906 272.574 43.1758 272.574 43.6523L272.586 44.2031L272.598 46.3945L272.574 47.4844L272.586 49.5234L272.562 51.5156L272.598 53.2383C272.598 54.9883 272.645 55.9219 272.738 56.0391C272.832 56.1562 273.152 56.2617 273.699 56.3555C274.262 56.4883 274.602 56.5859 274.719 56.6484C274.836 56.7109 274.895 56.8125 274.895 56.9531C274.895 56.9844 274.879 57.0312 274.848 57.0938C274.816 57.1016 274.797 57.1055 274.789 57.1055C274.75 57.1055 274.699 57.0977 274.637 57.082C273.785 56.9258 272.902 56.8477 271.988 56.8477C270.941 56.8477 269.766 56.9453 268.461 57.1406C268.445 57.0391 268.438 56.9609 268.438 56.9062C268.438 56.8594 268.445 56.7891 268.461 56.6953C268.664 56.5625 269.047 56.4648 269.609 56.4023C270.375 56.3242 270.758 55.9922 270.758 55.4062V53.7305L270.77 53.2969L270.793 52.793L270.758 44.543L266.281 49.5703C265.906 50.0234 265.43 50.5664 264.852 51.1992C264.266 51.8477 263.656 52.582 263.023 53.4023L262.051 54.6328C262.051 55.1797 262.082 55.5625 262.145 55.7812C262.207 55.9922 262.281 56.1211 262.367 56.168C262.461 56.2148 262.723 56.2773 263.152 56.3555C263.723 56.4883 264.062 56.5859 264.172 56.6484C264.289 56.7109 264.348 56.8125 264.348 56.9531C264.348 56.9844 264.336 57.0312 264.312 57.0938C264.281 57.1016 264.258 57.1055 264.242 57.1055C264.211 57.1055 264.164 57.0977 264.102 57.082C263.25 56.9258 262.363 56.8477 261.441 56.8477C260.395 56.8477 259.219 56.9453 257.914 57.1406C257.906 57.0391 257.902 56.9609 257.902 56.9062C257.902 56.8594 257.906 56.7891 257.914 56.6953C258.125 56.5625 258.508 56.4648 259.062 56.4023C259.836 56.3242 260.223 55.9922 260.223 55.4062L260.211 53.7305L260.234 53.2969L260.246 52.793L260.223 51.5977L260.211 50.2031V46.1953C260.211 44.9141 260.207 44.0625 260.199 43.6406C260.191 43.2188 260.164 42.9609 260.117 42.8672C260.078 42.7734 260.031 42.7109 259.977 42.6797C259.93 42.6484 259.648 42.6016 259.133 42.5391L258.758 42.4805C258.609 42.4648 258.484 42.4453 258.383 42.4219C258.344 42.3125 258.324 42.1797 258.324 42.0234C258.582 41.9844 258.75 41.9648 258.828 41.9648L260.363 42.0469C260.551 42.0625 261.062 42.0703 261.898 42.0703C262.242 42.0703 262.953 42.0312 264.031 41.9531C264.031 42.1172 264.016 42.2578 263.984 42.375C263.766 42.4766 263.41 42.5508 262.918 42.5977C262.496 42.6367 262.246 42.707 262.168 42.8086C262.09 42.9023 262.047 43.1836 262.039 43.6523L262.051 44.2031L262.062 46.3945L262.039 47.4844V49.5234L262.027 51.5156L262.051 53.7305L264.219 51.1289L265.859 49.2773L268.027 46.8398C269.004 45.7461 269.906 44.6914 270.734 43.6758Z" fill="black"/>
</svg>
